PathFileType	4	(X/Y/Z)	C:\Users\WrightLab\Desktop\Jo\P4V128.trc
DataRate	CameraRate	NumFrames	NumMarkers	Units	OrigDataRate	OrigDataStartFrame	OrigNumFrames
100.00	100.00	       18	19	mm	100.00	306	       489
Frame#	Time	Headset_Front			Headset_Back			Headset_Left			Headset_Right			Left_Shoulder			Right_Shoulder			Sternum			C7			Left Elbow			Right Elbow			Left Wrist			Right Wrist			Left ASIS			Right ASIS			S2			Left Knee			Right Knee			Left Ankle			Right Ankle			
		X1	Y1	Z1	X2	Y2	Z2	X3	Y3	Z3	X4	Y4	Z4	X5	Y5	Z5	X6	Y6	Z6	X7	Y7	Z7	X8	Y8	Z8	X9	Y9	Z9	X10	Y10	Z10	X11	Y11	Z11	X12	Y12	Z12	X13	Y13	Z13	X14	Y14	Z14	X15	Y15	Z15	X16	Y16	Z16	X17	Y17	Z17	X18	Y18	Z18	X19	Y19	Z19	

306	3.050				15.14739	1713.34460	1651.50574							210.56528	1565.80017	1472.82129	-86.09531	1557.83386	1405.59387	51.62936	1495.41748	1547.30920				368.95630	1224.51563	1489.51245	-222.54985	1204.06824	1391.84094	328.42569	966.73724	1662.46655	-215.68494	948.95636	1561.74500	211.04024	1076.74023	1557.55127	-114.26543	1053.63477	1486.50891	109.75153	1087.14355	1342.65088	248.49109	620.82159	1679.76538	-48.45358	576.35437	1521.18677	287.14532	215.28238	1368.35107	109.66131	91.39056	1451.00037	
307	3.060				13.80724	1714.59595	1659.70801							208.72935	1566.45959	1484.37000	-86.15103	1558.77136	1412.93127	49.87478	1496.10266	1555.81274				367.13535	1224.96484	1499.67383	-223.96880	1205.18408	1401.00232	325.80045	966.17041	1669.79993	-217.55975	951.79456	1572.82458	207.76375	1078.50110	1569.09033	-116.69006	1054.79736	1493.63831	110.54707	1087.02148	1354.58447	242.23030	623.82208	1695.86133	-47.94822	576.21136	1523.19165	287.48087	204.83319	1402.10632	110.48418	91.13078	1451.68408	
308	3.070				12.29380	1715.87073	1669.17993							207.75389	1566.43994	1493.88013	-87.42039	1559.76904	1421.80615	48.17297	1496.35742	1564.39380				365.68607	1225.21155	1509.61768	-225.01056	1206.15515	1409.64551	322.94568	965.73779	1679.35559	-219.27971	954.14404	1584.28760	205.41792	1078.93103	1579.87134	-118.63493	1055.19006	1499.95923	111.35789	1087.60486	1363.93481	236.02205	627.19171	1711.97400	-47.41688	576.37830	1525.03760	285.95111	194.59511	1436.47009	110.77131	91.06056	1451.99036	
309	3.080				10.31101	1716.87537	1676.99585							206.45398	1566.78210	1505.21741	-87.75728	1559.95117	1428.76770	46.03971	1497.12231	1573.49097				364.23431	1225.20752	1519.65710	-225.57219	1207.36829	1417.54761	320.64728	964.70538	1687.04028	-220.67824	956.71002	1595.36755	201.78189	1079.95825	1591.34143	-119.77500	1054.93469	1505.32776	111.63152	1088.24194	1372.21973	230.36826	627.72906	1724.29858	-47.06723	576.08069	1527.81567	284.15201	185.15707	1470.39697	110.98869	91.13698	1452.21509	
310	3.090				8.86745	1717.49609	1686.89233							205.49973	1567.00671	1514.04395	-88.61163	1560.96045	1437.95300	44.03185	1496.59192	1582.12378				362.57950	1225.34424	1530.50293	-226.78401	1207.39038	1427.26526	317.93311	963.51721	1695.35571	-222.30681	958.73743	1605.76978	198.60721	1080.47803	1600.99353	-123.50519	1056.90552	1514.59485	112.18640	1087.95630	1381.38794	223.26137	631.04053	1739.68970	-46.82512	576.03705	1529.15613	282.45096	176.56946	1505.54443	111.07005	91.39357	1452.33032	
311	3.100				7.35562	1717.33191	1694.92590							203.54874	1566.86621	1525.57593	-89.45271	1561.01978	1444.92004	42.53186	1496.99353	1590.78699				361.10040	1225.00366	1540.57495	-227.89603	1207.93787	1437.05579	314.29398	964.77570	1708.59119	-224.06787	961.09485	1617.11890	195.96970	1080.97693	1612.57336	-123.38995	1055.84131	1518.66968	112.98699	1088.50159	1391.41577	218.21310	632.09131	1752.50110	-46.44884	575.26135	1532.25220	280.43201	168.21268	1539.65369	111.07928	91.43000	1452.33276	
312	3.110				5.87291	1717.52490	1703.00671							202.48683	1566.50769	1535.67639	-89.72421	1561.57092	1451.91687	40.71838	1496.55066	1599.93274				359.47073	1225.11487	1550.34705	-228.43666	1207.77185	1444.44250	312.89200	960.78516	1711.26038	-225.48422	963.54688	1627.98621	193.14180	1080.62744	1622.37854	-125.57274	1057.42432	1528.31152				212.12263	633.88440	1766.76416	-45.78455	575.91797	1531.35120	277.40134	159.81102	1576.44678	111.09882	91.47499	1452.34863	
313	3.120	113.45228	1088.62854	1410.40247	4.32809	1717.85278	1712.99585							201.12148	1566.26123	1545.57068	-91.31870	1561.73889	1461.11023	38.41777	1496.46667	1607.48328				358.07639	1224.73999	1561.45740	-229.25218	1207.64697	1453.34436	309.42740	961.17346	1724.16272	-227.49069	964.76721	1638.44434	190.43919	1080.32422	1633.94714	-127.37170	1056.94922	1534.30042				206.17009	635.02637	1778.93054	-45.90143	575.00049	1535.95337	273.78308	152.59526	1610.09265	111.07936	91.50053	1452.34558	
314	3.130				2.43719	1717.29065	1720.95520							199.44258	1566.03540	1555.94348	-91.20813	1560.75208	1467.77429	36.43275	1496.10315	1616.04858				357.23062	1224.46277	1572.56555	-230.05659	1207.51917	1462.07764	308.27768	956.99548	1727.67322	-228.94865	966.81494	1649.30664	187.84239	1080.70496	1643.64465	-129.18735	1057.65283	1542.23523				200.89626	634.74866	1791.14063	-46.44715	574.83344	1538.96985	269.88483	146.16522	1645.89233	111.06397	91.52335	1452.36890	
315	3.140	112.57717	1087.15356	1431.75305	0.89780	1716.68054	1730.09229							198.58635	1565.34375	1566.15283	-92.23421	1560.70435	1475.81592	34.60632	1495.95776	1625.35217				355.56305	1223.93665	1582.48218	-230.79387	1207.29651	1468.60425	305.97748	955.45917	1737.13672	-230.81113	967.79126	1660.43250	185.55829	1079.15991	1654.09595	-130.47897	1057.83142	1548.93152				195.17635	634.58990	1802.74097	-46.60862	574.62109	1542.21887	264.37549	140.34300	1681.56287	111.06570	91.55469	1452.35986	
316	3.150	112.02899	1088.00940	1439.19568	-0.71543	1716.21753	1739.32422							196.96535	1564.95911	1576.00928	-93.24191	1560.11658	1483.66724	32.77430	1495.25110	1633.54236				354.23593	1223.10779	1593.97937	-231.41284	1206.16846	1477.88318	302.95059	955.48816	1748.02588	-232.51106	969.30475	1670.34546	182.83638	1079.06348	1664.51904	-131.67947	1057.26306	1555.74866				190.34862	634.06958	1813.46802	-46.06264	575.84668	1540.26123	258.04492	135.04997	1716.37695	111.08347	91.59003	1452.40100	
317	3.160				-2.57791	1715.59314	1747.12073							196.02266	1563.55322	1584.00708	-93.74770	1559.43823	1491.36780	31.27273	1494.72913	1642.78394				352.07123	1222.02527	1603.09729	-231.96483	1206.11084	1484.88611	301.47479	953.33997	1756.36157	-234.30475	970.38123	1681.19751	180.35101	1077.81860	1675.46240	-133.32831	1057.15637	1565.00769				185.35953	632.90637	1824.68274	-46.36021	575.63159	1543.23938	251.18225	130.01584	1750.36133	111.36825	92.12033	1452.43689	
318	3.170	111.27431	1085.86743	1461.77612	-3.80610	1714.90833	1756.71448							194.97137	1563.48645	1594.91956	-94.57870	1558.43896	1498.91626	29.72610	1494.31189	1650.78760				351.39767	1221.83191	1614.45557	-232.53131	1204.92310	1493.86780	299.38248	950.90820	1764.46228	-236.18170	971.63873	1691.80725	178.37733	1076.47180	1684.68665	-135.04945	1056.65198	1573.86328				181.20255	632.20831	1835.15137	-46.79913	575.30597	1545.82031	242.63365	126.22965	1783.55103	111.39612	92.92945	1452.19189	
319	3.180	110.26163	1085.22522	1470.74072	-4.86072	1713.51379	1764.84631							193.48788	1562.58496	1604.21228	-95.33347	1557.99341	1507.09717	27.98001	1494.03931	1659.76453				349.93777	1220.35730	1624.54004	-233.50685	1204.11011	1501.41980	298.09146	948.77563	1772.31482	-238.53091	972.23480	1701.83276	175.58923	1075.56836	1696.24829	-136.63741	1055.88208	1582.09814				177.33749	631.41528	1845.72729	-47.01928	574.67584	1549.23730	233.72742	123.02126	1816.13367	111.49358	93.24982	1452.32092	
320	3.190	109.41903	1084.56763	1479.80847	-6.46726	1712.09167	1772.80811							192.64738	1561.55859	1614.90002	-96.07902	1556.12268	1515.23975	26.92238	1492.66650	1667.82251				348.62796	1219.23425	1635.68494	-233.95908	1202.61377	1509.96082	296.28778	946.71130	1780.18152	-240.08778	972.95337	1712.41162	173.56104	1074.25732	1707.07275	-138.26385	1055.31665	1590.01904				173.52031	629.33569	1855.17554	-47.03229	573.95026	1552.85547	223.22081	120.39580	1847.51221	111.66216	93.38645	1452.69397	
321	3.200				-8.07649	1711.28625	1782.82471							191.22519	1560.35791	1623.52332	-96.50546	1554.96375	1522.63696	24.61901	1491.94397	1677.05383				347.24133	1218.30811	1645.07764	-235.07768	1201.33789	1518.52917	296.02872	942.48694	1785.87927	-242.31805	973.52863	1722.25342	171.21774	1071.93494	1717.20325	-139.78267	1054.36218	1598.27124				170.10088	627.79871	1864.90552	-46.95255	573.31427	1556.62537	212.21844	118.08913	1877.69165	111.73191	93.52886	1452.70386	
322	3.210				-9.20430	1709.82275	1791.23499							188.90855	1559.30652	1633.11816	-97.63271	1553.48413	1531.27734	23.57224	1490.88953	1686.85583				346.01053	1217.17322	1656.94360	-235.48891	1200.06396	1524.97607	294.26001	942.19550	1797.88049	-243.90280	973.81195	1732.26782	169.19600	1070.41443	1727.41040	-141.45151	1052.86206	1607.92273				166.95721	626.36578	1874.58191	-47.06255	572.71075	1561.29639	200.80682	116.64537	1908.02869	111.79368	93.58322	1452.78540	
323	3.220				-10.53307	1708.74207	1798.93188							188.90128	1557.60059	1642.90198	-98.52429	1551.90027	1539.67578	21.49759	1490.00146	1695.90198				344.59500	1215.82764	1667.20947	-236.56238	1198.50439	1533.11658	292.48334	939.87451	1805.69861	-246.11340	973.31769	1741.92944	167.16362	1068.96082	1739.41394	-143.33694	1051.76062	1616.93823				164.49222	623.32562	1882.20398	-47.49915	572.06232	1566.95789	188.15694	116.51823	1936.61719	111.87517	93.72070	1452.84485	
